<?xml version="1.0" encoding="UTF-8"?>
<svg id="Layer_1" data-name="Layer 1" xmlns="http://www.w3.org/2000/svg" version="1.1" viewBox="0 0 469.3 529.3">
  <defs>
    <style>
      .cls-1 {
        fill: #df1e26;
      }

      .cls-1, .cls-2, .cls-3 {
        stroke-width: 0px;
      }

      .cls-2 {
        fill: #1a1a1a;
      }

      .cls-3 {
        fill: #fff;
      }
    </style>
  </defs>
  <rect class="cls-3" width="469.3" height="529.3"/>
  <g>
    <rect class="cls-1" x="36.8" y="37.3" width="395.7" height="395.7"/>
    <polygon class="cls-2" points="36.8 491.2 36.8 459.4 52.6 459.4 52.6 462.1 39.6 462.1 39.6 472.1 52.6 472.1 52.6 474.8 39.6 474.8 39.6 488.5 52.6 488.5 52.6 491.2 36.8 491.2"/>
    <polygon class="cls-2" points="72.5 491.2 72.5 476.6 61.9 459.4 65.4 459.4 74 473.9 82.5 459.4 85.8 459.4 75.4 476.6 75.4 491.2 72.5 491.2"/>
    <polygon class="cls-2" points="96.1 491.2 96.1 459.4 111.8 459.4 111.8 462.1 98.9 462.1 98.9 472.1 111.8 472.1 111.8 474.8 98.9 474.8 98.9 488.5 111.8 488.5 111.8 491.2 96.1 491.2"/>
    <polygon class="cls-2" points="149.5 491.2 149.5 462.1 140.8 462.1 140.8 459.4 161.2 459.4 161.2 462.1 152.4 462.1 152.4 491.2 149.5 491.2"/>
    <polygon class="cls-2" points="172 491.2 172 459.4 175 459.4 175 472.3 192.2 472.3 192.2 459.4 195.2 459.4 195.2 491.2 192.2 491.2 192.2 474.8 175 474.8 175 491.2 172 491.2"/>
    <polygon class="cls-2" points="209.1 491.2 209.1 459.4 224.8 459.4 224.8 462.1 212 462.1 212 472.1 224.8 472.1 224.8 474.8 212 474.8 212 488.5 224.8 488.5 224.8 491.2 209.1 491.2"/>
    <polygon class="cls-2" points="256.9 491.2 256.9 459.4 272.7 459.4 272.7 462.1 259.8 462.1 259.8 472.1 272.1 472.1 272.1 474.8 259.8 474.8 259.8 491.2 256.9 491.2"/>
    <g>
      <path class="cls-2" d="M285.2,459.4h2.8v20.7c0,3.2.7,5.5,2.1,7,1.5,1.6,3.6,2.3,6.5,2.3s5-.7,6.5-2.3c1.5-1.6,2.1-3.9,2.1-7v-20.7h2.8v19.8c0,4.3-.9,7.5-2.8,9.7-1.9,2.1-4.8,3.2-8.7,3.2s-6.8-1.1-8.7-3.2c-1.9-2.1-2.8-5.4-2.8-9.7v-19.8h.2Z"/>
      <polygon class="cls-2" points="327.8 491.2 327.8 462.1 319 462.1 319 459.4 339.4 459.4 339.4 462.1 330.7 462.1 330.7 491.2 327.8 491.2"/>
      <path class="cls-2" d="M350.2,459.4h2.8v20.7c0,3.2.7,5.5,2.1,7,1.5,1.6,3.6,2.3,6.6,2.3s5-.7,6.5-2.3c1.5-1.6,2.1-3.9,2.1-7v-20.7h2.8v19.8c0,4.3-.9,7.5-2.8,9.7-1.9,2.1-4.8,3.2-8.7,3.2s-6.8-1.1-8.7-3.2c-1.9-2.1-2.8-5.4-2.8-9.7v-19.8h.1Z"/>
      <path class="cls-2" d="M406.4,491.2h-3.5l-11.1-15.1h-1.7v15.1h-2.9v-31.8h5.9c3.5,0,6,.7,7.8,2.1,1.7,1.5,2.5,3.6,2.5,6.5s-.7,4.4-2.2,5.9c-1.5,1.4-3.5,2.1-6.1,2.1l11.4,15.1ZM390,461.9v11.8h2.9c2.7,0,4.5-.4,5.7-1.3,1.1-.8,1.6-2.3,1.6-4.4s-.5-3.8-1.7-4.6c-1.1-.9-2.9-1.4-5.6-1.4h-2.9Z"/>
      <polygon class="cls-2" points="416.7 491.2 416.7 459.4 432.5 459.4 432.5 462.1 419.6 462.1 419.6 472.1 432.5 472.1 432.5 474.8 419.6 474.8 419.6 488.5 432.5 488.5 432.5 491.2 416.7 491.2"/>
      <path class="cls-3" d="M139,216.4c-6.4,0-12.4-1.3-18.1-3.7-5.7-2.4-10.5-5.8-14.7-10s-7.6-9.1-10-14.7c-2.4-5.7-3.7-11.7-3.7-18.1s1.3-12.4,3.7-18.1c2.4-5.7,5.8-10.5,10-14.8,4.2-4.2,9.1-7.6,14.7-10,5.7-2.4,11.7-3.7,18.1-3.7s16,2,23.1,6.1c1.4.7,2.3,1.9,2.7,3.4.4,1.5.2,2.8-.5,4.2-.7,1.5-1.9,2.3-3.4,2.7-1.5.4-2.9.2-4.3-.5-2.6-1.6-5.5-2.7-8.4-3.5s-6-1.2-9.3-1.2c-4.9,0-9.6.9-13.9,2.8-4.3,1.9-8,4.4-11.3,7.6-3.2,3.2-5.7,6.9-7.6,11.3-1.9,4.3-2.8,8.9-2.8,13.8s.9,9.6,2.8,13.9c1.9,4.3,4.4,8.1,7.6,11.3,3.2,3.3,6.9,5.8,11.3,7.7,4.3,1.9,8.9,2.8,13.9,2.8s6.7-.5,10-1.5c3.2-.9,6.2-2.3,9-4.1,1.4-.9,2.7-1.3,4.2-.8,1.5.3,2.6,1.2,3.5,2.5.8,1.4,1.1,2.7.7,4.2s-1.2,2.6-2.5,3.6c-7.6,4.4-15.9,6.8-24.9,6.8"/>
      <path class="cls-3" d="M267.6,208.2c.6,1.5.7,2.8.2,4.2s-1.5,2.4-2.8,3c-1.4.6-2.8.7-4.3.2-1.4-.5-2.4-1.5-3.2-2.8l-9.9-21.2h-25.1c-1.6,0-2.9-.5-4-1.6s-1.6-2.3-1.6-4,.5-2.8,1.6-3.9,2.3-1.6,4-1.6h19.9l-17.6-37.5-30.8,69.7c-.5,1.1-1.2,1.9-2.1,2.4s-1.9.8-3,.8-1.5-.1-2.3-.4c-1.4-.6-2.4-1.7-2.9-3.2-.5-1.4-.5-2.8.2-4.2l36-80.8c.4-1.1,1.1-1.8,2-2.4s1.9-.8,3-.8,2.1.3,3,.8,1.6,1.3,2,2.3l37.8,80.9Z"/>
      <path class="cls-3" d="M371.3,216c-1.5,0-2.7-.5-3.8-1.6s-1.6-2.4-1.6-3.9v-56.7l-25.1,58.9c-.4,1.1-1.1,1.8-1.9,2.4s-1.9.9-2.9.9-2.1-.3-3-.8-1.6-1.4-2-2.2l-29.2-61.6v59.3c0,1.5-.5,2.7-1.6,3.8s-2.3,1.6-3.8,1.6-2.8-.5-3.9-1.6-1.7-2.3-1.7-3.8v-83.5c0-1.3.4-2.4,1.2-3.4.7-1.1,1.8-1.6,3-1.9s2.4-.1,3.6.4,2,1.4,2.5,2.5l34.4,72.4,30.8-72.2c.5-1.2,1.4-2,2.5-2.6s2.4-.7,3.6-.5c1.3.2,2.3.8,3.2,1.9s1.3,2.1,1.3,3.4v83.4c0,1.5-.5,2.8-1.6,3.9-1.1,1.1-2.4,1.6-3.9,1.6"/>
      <path class="cls-3" d="M139,348.5c-6.4,0-12.4-1.3-18.1-3.7-5.7-2.4-10.5-5.8-14.7-10s-7.6-9.1-10-14.8c-2.4-5.7-3.7-11.7-3.7-18.1s1.3-12.4,3.7-18.1c2.4-5.7,5.8-10.5,10-14.7s9.1-7.6,14.7-10c5.7-2.4,11.7-3.7,18.1-3.7s16,2,23.1,6.1c1.4.7,2.3,1.9,2.7,3.4.4,1.5.2,2.8-.5,4.2s-1.9,2.3-3.4,2.7-2.9.2-4.3-.5c-2.6-1.6-5.5-2.7-8.4-3.5-2.9-.7-6-1.2-9.3-1.2-4.9,0-9.6.9-13.9,2.8-4.3,1.9-8,4.4-11.3,7.6-3.2,3.2-5.7,6.9-7.6,11.3-1.9,4.3-2.8,8.9-2.8,13.8s.9,9.6,2.8,13.9c1.9,4.3,4.4,8.1,7.6,11.3,3.2,3.3,6.9,5.8,11.3,7.7,4.3,1.9,8.9,2.8,13.9,2.8s6.7-.5,10-1.5c3.2-.9,6.2-2.3,9-4.1,1.4-.9,2.7-1.3,4.2-.8,1.5.3,2.6,1.2,3.5,2.5s1.1,2.7.7,4.2-1.2,2.6-2.5,3.6c-7.6,4.5-15.9,6.8-24.9,6.8"/>
      <path class="cls-3" d="M371.3,348.2c-1.5,0-2.7-.5-3.8-1.7-1.1-1.1-1.6-2.4-1.6-3.9v-56.7l-25.1,58.9c-.4,1.1-1.1,1.8-1.9,2.4-.8.6-1.9.9-2.9,1.1-1.1,0-2.1-.3-3-.8-.9-.6-1.6-1.4-2-2.2l-29.2-61.6v59.3c0,1.5-.5,2.7-1.6,3.8s-2.3,1.6-3.8,1.6-2.8-.5-3.9-1.6c-1.1-1.1-1.7-2.3-1.7-3.8v-83.5c0-1.3.4-2.4,1.2-3.4.7-.9,1.8-1.7,3-1.9,1.3-.2,2.4-.1,3.6.4s2,1.4,2.5,2.5l34.4,72.4,30.8-72.2c.5-1.2,1.4-2,2.5-2.6s2.4-.7,3.6-.5c1.3.2,2.3.8,3.2,1.9s1.3,2.1,1.3,3.4v83.4c0,1.5-.5,2.8-1.6,3.9-1.1.9-2.4,1.6-3.9,1.6"/>
      <path class="cls-3" d="M213.1,269.4c.4-.2.8-.3,1.3-.4-.4.1-.8.3-1.3.4"/>
      <path class="cls-3" d="M222.5,267.3c1.1-.1,2.1-.2,3.2-.2-1.1,0-2.1.1-3.2.2"/>
      <path class="cls-3" d="M268.8,319.3c-.3.7-.6,1.6-.9,2.3.3-.8.6-1.6.9-2.3"/>
      <path class="cls-3" d="M194.2,286.6c0-.1.1-.2.2-.3-.1.1-.2.2-.2.3"/>
      <path class="cls-3" d="M241.7,345.8c-1.2.4-2.4.8-3.6,1.2,1.3-.3,2.4-.7,3.6-1.2"/>
      <path class="cls-3" d="M192.2,291.4c.1-.4.3-.8.4-1.2-.1.3-.3.7-.4,1.2"/>
      <path class="cls-3" d="M221.3,348.4c-.3,0-.6-.1-.9-.1.3.1.6.1.9.1"/>
      <path class="cls-3" d="M225.8,256.2h-.2.7-.5"/>
      <path class="cls-3" d="M191.4,294.4c.1-.5.3-1.2.4-1.7-.1.6-.3,1.2-.4,1.7"/>
      <path class="cls-3" d="M219.2,267.7c.7-.1,1.6-.3,2.4-.4-.8.1-1.7.3-2.4.4"/>
      <path class="cls-3" d="M179.8,307.6c0-.4-.1-.8-.1-1.3,0,.4,0,.8.1,1.3"/>
      <path class="cls-3" d="M215.9,268.6c.8-.2,1.7-.4,2.5-.6-.8.1-1.7.3-2.5.6"/>
      <path class="cls-3" d="M271.8,306.2c0,.5-.1.9-.1,1.5,0-.5,0-1.1.1-1.5"/>
      <path class="cls-3" d="M225.8,348.6h.5-.8.3"/>
      <path class="cls-3" d="M230.8,348.4c-.3,0-.6,0-.9.1.3-.1.6-.1.9-.1"/>
      <path class="cls-3" d="M235.4,336.3c-.6.2-1.4.3-2,.5.6-.2,1.4-.3,2-.5"/>
      <path class="cls-3" d="M221.7,337.4c-.9-.1-2-.2-2.9-.4,1.1.1,2,.3,2.9.4"/>
      <path class="cls-3" d="M225.4,337.7c-1.1,0-2.1-.1-3.2-.2,1.2.1,2.2.2,3.2.2"/>
      <path class="cls-3" d="M271.9,302.3v-.6,1.5-.8"/>
      <path class="cls-3" d="M229.9,256.4c.3,0,.7.1,1.1.1-.3-.1-.7-.1-1.1-.1"/>
      <path class="cls-3" d="M190.6,298.4c.1-.9.2-1.8.4-2.7-.1.9-.3,1.8-.4,2.7"/>
      <path class="cls-3" d="M236.1,347.4c-.5.1-1.1.2-1.6.3.5-.1,1.1-.2,1.6-.3"/>
      <path class="cls-3" d="M271.7,297.4c0,.3,0,.7.1,1.1-.1-.3-.1-.6-.1-1.1"/>
      <path class="cls-3" d="M190.4,302c0-1.1,0-2.1.2-3.3-.1,1.2-.2,2.2-.2,3.3"/>
      <path class="cls-3" d="M190.6,305.4c-.1-.7-.1-1.6-.1-2.4,0,.8,0,1.7.1,2.4"/>
      <path class="cls-3" d="M232.4,337c-.9.2-1.9.3-2.9.4,1.1-.1,2-.3,2.9-.4"/>
      <path class="cls-3" d="M180.3,293.6c.1-.5.2-.9.3-1.5-.1.4-.2.9-.3,1.5"/>
      <path class="cls-3" d="M181.3,289.6c.2-.5.3-1.1.5-1.7-.2.6-.3,1.2-.5,1.7"/>
      <path class="cls-3" d="M257.9,316.6c-.3.6-.6,1.3-.9,1.9.4-.6.7-1.3.9-1.9"/>
      <path class="cls-3" d="M259.2,313.6c-.2.6-.4,1.3-.7,2,.2-.7.5-1.4.7-2"/>
      <path class="cls-3" d="M182.6,285.6c.4-.9.7-1.9,1.3-2.8-.5.9-.9,1.9-1.3,2.8"/>
      <path class="cls-3" d="M179.7,297.8v-.2.2"/>
      <path class="cls-3" d="M271.2,310.8c-.1.4-.1.8-.2,1.3,0-.4.1-.8.2-1.3"/>
      <path class="cls-3" d="M179.5,302.3v.8-1.3.4"/>
      <path class="cls-3" d="M216.7,347.8c-.2,0-.3-.1-.5-.1.2,0,.4.1.5.1"/>
      <path class="cls-3" d="M270,315.6c-.2.7-.4,1.4-.7,2,.3-.6.5-1.4.7-2"/>
      <path class="cls-3" d="M184.7,281c.3-.7.7-1.4,1.2-2.1-.4.7-.8,1.5-1.2,2.1"/>
      <path class="cls-3" d="M216,257.1c.4-.1.8-.2,1.3-.2-.4.1-.8.2-1.3.2"/>
      <path class="cls-3" d="M220.3,256.5c.4,0,.7-.1,1.2-.1-.4,0-.8,0-1.2.1"/>
      <path class="cls-3" d="M226,267.1c.9,0,1.9.1,2.8.1-.9,0-1.9-.1-2.8-.1"/>
      <path class="cls-3" d="M261,303c0,.7-.1,1.6-.1,2.3,0-.7.1-1.5.1-2.3"/>
      <path class="cls-3" d="M260.9,299.4c.1.8.1,1.7.1,2.5,0-.8-.1-1.7-.1-2.5"/>
      <path class="cls-3" d="M228.9,337.4c-.9.1-1.8.1-2.7.1.9.1,1.8,0,2.7-.1"/>
      <path class="cls-3" d="M260.8,306.3c-.1,1.1-.3,2.1-.4,3,.1-.9.3-2,.4-3"/>
      <path class="cls-3" d="M260.3,309.6c-.2.9-.5,2-.7,2.9.2-.9.5-1.9.7-2.9"/>
      <path class="cls-3" d="M210.6,258.7c.6-.2,1.4-.4,2-.6-.6.2-1.4.4-2,.6"/>
      <path class="cls-3" d="M267.8,321.6c-.1.3-.3.6-.5.9.2-.3.3-.6.5-.9"/>
      <path class="cls-3" d="M271.7,307.6c-.1,1.1-.3,2.2-.5,3.3.2-1.1.3-2.1.5-3.3"/>
      <path class="cls-3" d="M269.4,317.6c-.2.5-.4,1.1-.6,1.7.2-.5.4-1.2.6-1.7"/>
      <path class="cls-3" d="M270.9,312.1c-.2,1.2-.5,2.3-.8,3.5.3-1.2.6-2.3.8-3.5"/>
      <path class="cls-3" d="M212.6,258c1.2-.3,2.2-.6,3.4-.8-1.2.2-2.2.5-3.4.8"/>
      <path class="cls-3" d="M209.3,259.2c.4-.2.9-.3,1.4-.5-.4.1-.9.3-1.4.5"/>
      <path class="cls-3" d="M217.4,256.9c.9-.2,2-.3,2.9-.4-1.1.1-2,.2-2.9.4"/>
      <path class="cls-3" d="M221.5,256.4c1.4-.1,2.7-.2,4.1-.2-1.4,0-2.7,0-4.1.2"/>
      <path class="cls-3" d="M271.9,303.2c0,1.1-.1,2-.2,2.9.1-.9.2-1.9.2-2.9"/>
      <path class="cls-3" d="M271.8,298.5c.1,1.1.1,2.2.2,3.3-.1-1.2-.2-2.2-.2-3.3"/>
      <path class="cls-3" d="M226.3,256.2c1.2,0,2.4.1,3.6.2-1.3-.2-2.4-.2-3.6-.2"/>
      <path class="cls-3" d="M271.8,298.5c0-.3,0-.7-.1-1.1-2.3-21.6-19.4-38.6-40.8-41-.3,0-.7-.1-1.1-.1-1.2-.1-2.3-.2-3.6-.2h-.7c-1.4,0-2.7.1-4.1.2-.4,0-.7.1-1.2.1-1.1.1-2,.3-2.9.4-.4.1-.8.1-1.3.2-1.2.2-2.2.5-3.4.8-.6.2-1.4.4-2,.6-.4.2-.9.3-1.4.5-.7.3-1.5.5-2.1.8-3.2,1.4-4,5.6-1.8,8.2l.3.3c1.5,1.8,4,2.3,6.1,1.5.5-.2.9-.4,1.5-.5.4-.2.8-.3,1.3-.4s.9-.3,1.4-.4c.8-.2,1.7-.4,2.5-.6.3-.1.5-.1.8-.1.7-.1,1.6-.3,2.4-.4.3,0,.6-.1.8-.1,1.1-.1,2.1-.2,3.2-.2h.4c.9,0,1.9.1,2.8.1s.5,0,.8.1c1.1.1,2,.3,3,.4h0c14.9,3,26.4,15.5,28,30.8,0,.2,0,.5.1.7.1.8.1,1.7.1,2.5v1.2c0,.7-.1,1.6-.1,2.3s-.1.6-.1,1.1c-.1,1.1-.3,2.1-.4,3v.2c-.2.9-.5,2-.7,2.9-.1.3-.2.7-.3,1.1-.2.6-.4,1.3-.7,2-.1.3-.3.7-.4,1.1-.3.6-.6,1.3-.9,1.9-.2.3-.3.6-.4.8-.4.8-.9,1.6-1.4,2.4-1.3,2-1.3,4.5.3,6.3l.2.3c2.2,2.7,6.5,2.5,8.4-.4,1.2-1.8,2.2-3.6,3.2-5.5.2-.3.3-.6.5-.9.3-.7.6-1.5.9-2.3.2-.5.4-1.1.6-1.7s.5-1.4.7-2c.3-1.2.6-2.2.8-3.5.1-.4.2-.8.2-1.3.2-1.1.4-2.1.5-3.3.1-.5.1-.9.1-1.5.1-.9.1-2,.2-2.9v-1.5c-.4-1.1-.5-2.1-.5-3.2"/>
      <path class="cls-3" d="M218.4,267.8c.3-.1.5-.1.8-.1-.3,0-.6.1-.8.1"/>
      <path class="cls-3" d="M228.9,267.3c.3,0,.5,0,.8.1-.3-.1-.6-.1-.8-.1"/>
      <path class="cls-3" d="M260.8,298.6c0,.2,0,.5.1.7-.1-.3-.1-.5-.1-.7"/>
      <path class="cls-3" d="M225.8,267.1q-.1,0,0,0h.3-.3"/>
      <path class="cls-3" d="M261,302.3v-.5,1.1-.5"/>
      <path class="cls-3" d="M260.3,309.4v.2-.2"/>
      <path class="cls-3" d="M221.7,267.3c.3,0,.6-.1.8-.1-.3.1-.6.1-.8.1"/>
      <path class="cls-3" d="M260.9,305.3c0,.3-.1.6-.1,1.1,0-.3,0-.6.1-1.1"/>
      <path class="cls-3" d="M258.5,315.5c-.1.3-.3.7-.4,1.1.1-.3.2-.6.4-1.1"/>
      <path class="cls-3" d="M213.1,269.4c-.5.2-.9.3-1.5.5h.1c.5-.2.9-.3,1.4-.5"/>
      <path class="cls-3" d="M259.5,312.5c-.1.3-.2.7-.3,1.1.1-.4.2-.7.3-1.1"/>
      <path class="cls-3" d="M214.4,269c.4-.1.9-.3,1.4-.4-.4.1-.8.2-1.4.4"/>
      <path class="cls-3" d="M256.6,319.4c.2-.3.3-.6.4-.8-.1.3-.2.5-.4.8"/>
      <path class="cls-3" d="M180.6,292.1c.2-.8.4-1.7.6-2.5-.2.8-.4,1.7-.6,2.5"/>
      <path class="cls-3" d="M179.5,301.9c0-1.4.1-2.7.2-4.1-.1,1.4-.2,2.7-.2,4.1"/>
      <path class="cls-3" d="M179.7,297.6c.1-1.4.3-2.7.6-4.1-.3,1.4-.5,2.7-.6,4.1"/>
      <path class="cls-3" d="M179.7,306.3c-.1-1.1-.1-2.1-.2-3.2,0,1.1.1,2.1.2,3.2"/>
      <path class="cls-3" d="M181.8,287.9c.2-.7.5-1.6.8-2.3-.3.8-.6,1.6-.8,2.3"/>
      <path class="cls-3" d="M225.4,348.6c-1.4,0-2.7-.1-4.1-.2,1.4.2,2.7.2,4.1.2"/>
      <path class="cls-3" d="M229.9,348.4c-1.2.1-2.3.2-3.6.2,1.2,0,2.4-.1,3.6-.2"/>
      <path class="cls-3" d="M234.5,347.8c-1.3.2-2.4.4-3.7.5,1.2-.1,2.4-.2,3.7-.5"/>
      <path class="cls-3" d="M220.4,348.3c-1.3-.1-2.4-.3-3.6-.5,1.2.2,2.3.4,3.6.5"/>
      <path class="cls-3" d="M183.8,282.8c.3-.6.5-1.2.8-1.8-.2.6-.5,1.3-.8,1.8"/>
      <path class="cls-3" d="M186.3,278.2c-.1.2-.3.5-.4.7.2-.3.3-.5.5-.8q-.1,0-.1.1"/>
      <path class="cls-3" d="M238.2,346.9c-.7.2-1.5.4-2.1.5.6-.1,1.4-.3,2.1-.5"/>
      <path class="cls-3" d="M242.6,345.4h0c-.2.1-.5.2-.8.3.3-.1.6-.2.8-.3"/>
      <path class="cls-3" d="M244.7,336.8c-1.6-1.8-4-2.4-6.3-1.6-.4.2-.9.3-1.4.5-.5.2-1.1.3-1.6.5-.6.2-1.4.3-2,.5-.3.1-.6.1-1.1.2-.9.2-1.9.3-2.9.4h-.6c-.9.1-1.8.1-2.7.1h-.6c-1.1,0-2.1-.1-3.2-.2-.2,0-.4,0-.6-.1-.9-.1-1.9-.2-2.9-.4h-.2c-14.7-3-26.1-15.4-27.9-30.5,0-.3-.1-.6-.1-1.1-.1-.8-.1-1.6-.1-2.4v-.9c0-1.1,0-2.1.2-3.3,0-.1,0-.2.1-.4.1-.9.2-1.8.4-2.7.1-.4.2-.8.3-1.3.1-.5.3-1.2.4-1.7.1-.5.3-.9.4-1.5.1-.4.3-.8.4-1.2.4-1.2.9-2.3,1.5-3.5,0-.1.1-.2.2-.3.3-.7.7-1.4,1.2-2,0-.1.1-.1.1-.2,1.3-2,1.1-4.6-.4-6.4h0c-2.3-2.7-6.7-2.6-8.7.4-.2.3-.3.5-.5.8-.4.6-.7,1.4-1.2,2-.3.6-.6,1.2-.8,1.8-.4.9-.8,1.9-1.3,2.8-.3.7-.6,1.5-.8,2.3-.2.5-.3,1.1-.5,1.7-.2.8-.4,1.7-.6,2.5-.1.5-.2.9-.3,1.5-.3,1.4-.5,2.7-.6,4.1v.2c-.1,1.4-.2,2.7-.2,4.1v1.3c0,1.1.1,2.1.2,3.2,0,.4.1.8.1,1.3,2.2,19.9,17.1,36,36.5,40.1.2,0,.3.1.5.1,1.2.2,2.4.4,3.6.5.3,0,.6.1.9.1,1.4.1,2.7.2,4.1.2h.8c1.2,0,2.4-.1,3.6-.2.3,0,.6,0,.9-.1,1.3-.1,2.5-.3,3.7-.5.5-.1,1.1-.2,1.6-.3.7-.2,1.5-.3,2.1-.5,1.3-.3,2.4-.7,3.6-1.2.3-.1.5-.2.8-.3,3.4-1.3,4.4-5.7,2-8.5"/>
      <path class="cls-3" d="M194.3,286.3c.3-.7.7-1.4,1.2-2-.4.6-.8,1.3-1.2,2"/>
      <path class="cls-3" d="M191.1,295.7c.1-.4.2-.8.3-1.3-.1.4-.2.8-.3,1.3"/>
      <path class="cls-3" d="M190.6,298.8c0-.1,0-.2.1-.4-.1.1-.1.2-.1.4"/>
      <path class="cls-3" d="M190.4,302.3v.6-.9.3"/>
      <path class="cls-3" d="M192.6,290.1c.4-1.2.9-2.3,1.5-3.5-.5,1.2-1.1,2.3-1.5,3.5"/>
      <path class="cls-3" d="M190.6,306.4c0-.3-.1-.6-.1-1.1.1.3.1.6.1,1.1"/>
      <path class="cls-3" d="M191.8,292.7c.1-.5.3-.9.4-1.5-.1.5-.3,1.1-.4,1.5"/>
      <path class="cls-3" d="M237,335.8c-.5.2-1.1.3-1.6.5.5-.2,1.1-.3,1.6-.5"/>
      <path class="cls-3" d="M229.5,337.4h-.6.6"/>
      <path class="cls-3" d="M233.4,336.8c-.3.1-.6.1-1.1.2.4-.1.7-.2,1.1-.2"/>
      <path class="cls-3" d="M222.4,337.4c-.2,0-.4,0-.6-.1.1.1.3.1.6.1"/>
      <path class="cls-3" d="M218.8,336.9h-.2s.1,0,.2,0"/>
      <path class="cls-3" d="M225.8,337.7h.4-.6.2"/>
    </g>
  </g>
</svg>